<svg height="512pt" viewBox="-15 0 511 512" width="512pt"
     xmlns="http://www.w3.org/2000/svg"><path style="fill:#fff;" d="m95.648438 241h-20.148438c-4.300781 0-8.394531 1.847656-11.242188 5.070312-2.847656 3.222657-4.171874 7.515626-3.640624 11.78125l26.714843 214.730469c2.808594 22.472657 22.003907 39.417969 44.652344 39.417969h187.03125c22.648437 0 41.84375-16.945312 44.652344-39.425781l2.5625-20.574219h24.269531c49.519531 0 90-41.03125 90-91 0-49.625-40.375-90-90-90h-1.75l1.636719-13.148438c.53125-4.265624-.796875-8.558593-3.644531-11.78125-2.847657-3.222656-6.941407-5.070312-11.242188-5.070312h-42.125c18.53125-20.148438 34.308594-40.101562 45.460938-57.628906 5.269531-8.28125 10.957031-18.09375 14.421874-27.8125 13.976563 2.214844 28.464844-2.144532 38.914063-12.59375 5.269531-5.269532 8.808594-11.609375 9.714844-14.878906l15.347656-55.359376c1.441406-5.207031-.027344-10.792968-3.847656-14.613281-3.824219-3.824219-9.40625-5.292969-14.617188-3.847656l-55.355469 15.347656c-3.273437.90625-9.617187 4.449219-14.878906 9.710938-10.472656 10.472656-14.835937 24.871093-12.617187 38.929687-9.710938 3.460938-19.511719 9.140625-27.789063 14.410156-17.527344 11.152344-37.480468 26.929688-57.628906 45.457032v-103.121094c0-2.328125-.542969-4.625-1.582031-6.707031l-30-60c-2.542969-5.082031-7.734375-8.292969-13.417969-8.292969-5.679688 0-10.875 3.210938-13.414062 8.292969l-30 60c-1.042969 2.082031-1.585938 4.378906-1.585938 6.707031v80.148438l-90.753906-90.753907c-5.984375-5.984375-15.542969-5.761719-21.292969.082031l-63.640625 64.640626c-5.78125 5.871093-5.746094 15.304687.082031 21.128906zm223.367187 241h-187.03125c-7.550781 0-13.949219-5.648438-14.886719-13.132812l-17.152344-137.867188h251.109376l-17.152344 137.859375c-.9375 7.492187-7.335938 13.140625-14.886719 13.140625zm71.484375-181c33.085938 0 60 26.914062 60 60 0 33.636719-26.914062 61-60 61h-20.539062l15.054687-121zm-35.714844 0h-258.570312l-3.734375-30.011719h266.039062c-.011719.105469-3.554687 28.585938-3.734375 30.011719zm-144.285156-181h30v121h-30c0-21.621094 0-88.238281 0-121zm179.246094-19.460938c.957031-.957031 2.023437-1.769531 3.175781-2.429687l28.320313-7.851563-7.851563 28.320313c-.660156 1.152344-1.472656 2.21875-2.429687 3.175781-5.847657 5.847656-15.363282 5.851563-21.214844 0-5.863282-5.863281-5.863282-15.351562 0-21.214844zm-52.925782 62.351563c13.117188-9.03125 21.9375-13.5 27.503907-15.714844-2.214844 5.566407-6.6875 14.386719-15.714844 27.503907-15.722656 22.84375-37.246094 46.890624-56.917969 66.320312h-21.191406v-21.191406c19.707031-19.949219 43.710938-41.355469 66.320312-56.917969zm-111.320312-114.351563 15 30v11.460938h-30v-11.460938zm-146.277344 47.757813 101.277344 101.277344v43.425781h-42.425781l-101.441407-101.441406zm0 0"/></svg>