<svg height="512pt" viewBox="0 0 512 512" width="512pt"
     xmlns="http://www.w3.org/2000/svg"><path
        style="fill:#fff;"
        d="m467 0h-422c-24.8125 0-45 20.1875-45 45v302c0 24.8125 20.1875 45 45 45h166v30h-15c-2.328125 0-4.625.542969-6.707031 1.582031l-60 30c-5.082031 2.542969-8.292969 7.734375-8.292969 13.417969v30c0 8.285156 6.714844 15 15 15h240c8.285156 0 15-6.714844 15-15v-30c0-5.683594-3.210938-10.875-8.292969-13.417969l-60-30c-2.082031-1.039062-4.378906-1.582031-6.707031-1.582031h-15v-30h166c24.8125 0 45-20.1875 45-45v-302c0-24.8125-20.1875-45-45-45zm-422 30h422c8.269531 0 15 6.730469 15 15v227h-452v-227c0-8.269531 6.730469-15 15-15zm316 446.269531v5.730469h-210v-5.730469l48.539062-24.269531h112.921876zm-90-54.269531h-30v-30h30zm196-60h-422c-8.269531 0-15-6.730469-15-15v-45h211v15c0 8.285156 6.714844 15 15 15s15-6.714844 15-15v-15h211v45c0 8.269531-6.730469 15-15 15zm0 0"/></svg>